<?xml version="1.0" encoding="UTF-8"?>
<svg id="Layer_1" data-name="Layer 1" xmlns="http://www.w3.org/2000/svg" viewBox="0 0 1200 1200">
  <defs>
    <style>
      .cls-1 {
        fill: #be1e2d;
      }
    </style>
  </defs>
  <path class="cls-1" d="M711.36,509.21l-15.03-210.14-157.65,139.76-204.5-50.64,84.2,193.12-111.36,178.84,209.69-20.4,135.68,161.17,45.4-205.73,195.21-79.23-181.63-106.75Zm-45.9,146.93c-11.89,30.94-63.91,47.25-80.4,32.39-19.49-17.57,16.86-73.21-2.55-88.73-16.37-13.09-47.54,22.24-86.81,10.38-28.18-8.51-49.08-37.86-43.54-50.08,7.65-16.88,66.76-3.31,69.85-15.85,1.59-6.46-13.74-11.49-12.76-19.45,1.59-12.8,44.68-27.5,77.27-12.69,5.03,2.29,17.15,8.61,43.76,53.68,28.22,47.8,42.33,71.7,35.17,90.34Z"/>
</svg>